<?xml version="1.0" ?><svg height="1024" preserveAspectRatio="xMidYMid" viewBox="0 0 1024 1024" width="1024" xmlns="http://www.w3.org/2000/svg" xmlns:xlink="http://www.w3.org/1999/xlink"><defs><style>
      .cls-1, .cls-3 {
        fill: #fff;
      }

      .cls-2 {
        fill: #3f729b;
      }

      .cls-3, .cls-4, .cls-5, .cls-6, .cls-7 {
        fill-rule: evenodd;
      }

      .cls-4, .cls-5, .cls-6 {
        fill: #010101;
      }

      .cls-4 {
        opacity: 0.05;
      }

      .cls-5 {
        opacity: 0.1;
      }

      .cls-6 {
        opacity: 0.15;
      }

      .cls-7 {
        fill: #000;
        opacity: 0.2;
      }
    </style></defs><circle class="cls-1" cx="512" cy="512" r="512"/><circle class="cls-2" cx="513" cy="513" r="501"/><path class="cls-3" d="M705.250,816.000 L322.750,816.000 C259.363,816.000 208.000,764.648 208.000,701.250 L208.000,318.750 C208.000,255.363 259.363,204.000 322.750,204.000 L705.250,204.000 C768.648,204.000 820.000,255.363 820.000,318.750 L820.000,701.250 C820.000,764.648 768.648,816.000 705.250,816.000 ZM655.186,506.493 C655.174,506.010 655.152,505.530 655.135,505.049 C655.112,504.379 655.091,503.709 655.059,503.041 C655.027,502.396 654.984,501.754 654.944,501.112 C654.914,500.625 654.887,500.138 654.852,499.652 C654.795,498.879 654.728,498.109 654.659,497.339 C654.630,497.006 654.603,496.672 654.571,496.340 C654.483,495.437 654.386,494.537 654.282,493.639 C654.262,493.465 654.243,493.292 654.222,493.119 C650.675,463.586 637.945,436.920 619.050,415.846 L619.250,415.846 C593.385,386.955 555.811,368.769 514.000,368.769 C472.183,368.769 434.609,386.955 408.746,415.846 L408.950,415.846 C390.055,436.900 377.325,463.580 373.778,493.118 C373.757,493.290 373.738,493.464 373.718,493.636 C373.614,494.535 373.517,495.436 373.429,496.340 C373.397,496.671 373.370,497.003 373.341,497.334 C373.272,498.106 373.205,498.878 373.148,499.653 C373.113,500.136 373.086,500.622 373.056,501.106 C373.016,501.751 372.973,502.395 372.941,503.042 C372.909,503.707 372.888,504.376 372.865,505.044 C372.848,505.527 372.826,506.009 372.814,506.494 C372.785,507.659 372.769,508.828 372.769,510.000 C372.769,588.018 436.017,651.231 514.000,651.231 C591.971,651.231 655.231,588.018 655.231,510.000 C655.231,508.828 655.215,507.659 655.186,506.493 ZM772.923,318.750 C772.923,281.442 742.580,251.077 705.250,251.077 L322.750,251.077 C285.442,251.077 255.077,281.442 255.077,318.750 L255.077,415.846 L350.972,415.846 C383.580,359.605 444.445,321.692 514.000,321.692 C583.555,321.692 644.420,359.605 677.028,415.846 L772.923,415.846 L772.923,318.750 ZM655.231,345.231 L655.231,298.154 C655.231,285.189 665.804,274.615 678.769,274.615 L725.846,274.615 C738.811,274.615 749.385,285.189 749.385,298.154 L749.385,345.231 C749.385,358.196 738.811,368.769 725.846,368.769 L678.769,368.769 C665.804,368.769 655.231,358.196 655.231,345.231 ZM514.024,599.740 C464.407,599.740 424.271,559.605 424.271,510.000 C424.271,492.909 429.259,477.140 437.547,463.556 C436.248,467.774 435.339,472.176 435.339,476.853 C435.339,502.002 455.693,522.367 480.830,522.367 C506.002,522.367 526.320,501.955 526.320,476.853 C526.320,451.693 505.978,431.339 480.830,431.339 C476.197,431.339 471.796,432.201 467.556,433.524 C481.140,425.283 496.909,420.271 514.000,420.271 C563.560,420.271 603.787,460.383 603.787,510.000 C603.787,559.605 563.560,599.740 514.024,599.740 Z"/><path class="cls-4" d="M0.008,509.066 C0.003,510.043 0.000,511.021 0.000,512.000 C0.000,794.770 229.230,1024.000 512.000,1024.000 C626.613,1024.000 732.430,986.341 817.752,922.721 L0.008,509.066 Z"/><path class="cls-5" d="M0.031,517.724 C0.010,515.819 0.000,513.911 0.000,512.000 C0.000,368.971 58.648,239.640 153.208,146.743 L874.075,874.003 C856.305,891.776 837.234,908.249 817.018,923.267 L0.031,517.724 Z"/><path class="cls-6" d="M872.758,875.315 C889.442,858.747 904.991,841.039 919.279,822.316 L495.341,0.266 C359.576,4.606 237.155,61.801 147.982,151.951 L872.758,875.315 Z"/><path class="cls-7" d="M918.196,823.730 C984.551,737.396 1024.000,629.305 1024.000,512.000 C1024.000,229.230 794.770,-0.000 512.000,-0.000 C504.185,-0.000 496.410,0.175 488.680,0.522 L918.196,823.730 Z"/></svg>