<?xml version="1.0" encoding="iso-8859-1"?>
<!-- Generator: Adobe Illustrator 19.0.0, SVG Export Plug-In . SVG Version: 6.00 Build 0)  -->
<svg version="1.1" id="Layer_1" xmlns="http://www.w3.org/2000/svg" xmlns:xlink="http://www.w3.org/1999/xlink" x="0px" y="0px"
	 viewBox="0 0 512 512" style="enable-background:new 0 0 512 512;" xml:space="preserve">
<path style="fill:#3C695E;" d="M382.501,435.56L190.548,243.612c6.589-11.761,10.112-25.064,10.112-38.915
	c0-21.318-8.302-41.361-23.375-56.436l-40.721-40.717c-0.104-0.11-0.212-0.218-0.318-0.325
	C121.17,92.145,101.129,83.845,79.81,83.845s-41.36,8.3-56.435,23.374C8.303,122.293,0,142.335,0,163.655
	c0,21.319,8.303,41.363,23.375,56.435l41.045,41.043c15.074,15.072,35.116,23.372,56.435,23.372l0,0
	c13.85,0,27.151-3.526,38.912-10.112l191.951,191.948c4.252,4.249,9.821,6.375,15.391,6.375c5.569,0,11.141-2.126,15.391-6.375
	C391.003,457.84,391.003,444.058,382.501,435.56z"/>
<path style="fill:#7BD9BF;" d="M505.623,168.786c-8.499-8.499-22.281-8.499-30.781,0l-51.289,51.289
	c-12.331,12.333-28.733,19.127-46.179,19.131c-0.006,0-0.009,0-0.015,0c-9.908,0-19.473-2.197-28.151-6.348l94.852-94.855
	c8.502-8.499,8.502-22.281,0-30.781c-8.5-8.499-22.281-8.499-30.781,0l-94.827,94.83c-11.558-24.272-7.312-54.254,12.756-74.322
	l51.289-51.286c8.502-8.502,8.502-22.283,0-30.784c-8.499-8.5-22.28-8.5-30.781,0l-51.288,51.286
	c-37.169,37.169-41.786,94.749-13.856,136.984L84.941,435.56c-8.499,8.5-8.499,22.281,0,30.781
	c4.252,4.252,9.821,6.375,15.393,6.375c5.569,0,11.141-2.123,15.389-6.375l201.618-201.618
	c17.648,11.716,38.343,18.014,60.018,18.014c0.006,0,0.017,0,0.023,0c29.072-0.006,56.401-11.328,76.952-31.881l51.289-51.289
	C514.126,191.067,514.126,177.287,505.623,168.786z"/>
<g>
</g>
<g>
</g>
<g>
</g>
<g>
</g>
<g>
</g>
<g>
</g>
<g>
</g>
<g>
</g>
<g>
</g>
<g>
</g>
<g>
</g>
<g>
</g>
<g>
</g>
<g>
</g>
<g>
</g>
</svg>
